<svg xmlns="http://www.w3.org/2000/svg"  viewBox="0 0 48 48" width="50px" height="50px" baseProfile="basic"><linearGradient id="2Kwn75UM7U5wuXsmTmjBBa" x1="14.101" x2="34.491" y1="6.854" y2="42.171" gradientUnits="userSpaceOnUse"><stop offset="0" stop-color="#ea504d"/><stop offset=".736" stop-color="#e83e3b"/><stop offset="1" stop-color="#e73634"/></linearGradient><path fill="url(#2Kwn75UM7U5wuXsmTmjBBa)" d="M44,24c0,11.045-8.955,20-20,20S4,35.045,4,24S12.955,4,24,4S44,12.955,44,24z"/><path fill="#fff" d="M24,37c-7.168,0-13-5.832-13-13s5.832-13,13-13s13,5.832,13,13S31.168,37,24,37z M24,12	c-6.617,0-12,5.383-12,12s5.383,12,12,12s12-5.383,12-12S30.617,12,24,12z"/><polygon fill="#fff" points="20,18 20,30 30,24"/></svg>